<svg viewBox="0 0 30 30" xmlns="http://www.w3.org/2000/svg" xmlns:xlink="http://www.w3.org/1999/xlink" aria-hidden="true" role="img" class="iconify iconify--emojione-monotone" preserveAspectRatio="xMidYMid meet" fill="#000000" width="30" height="30"><g id="SVGRepo_bgCarrier" stroke-width="0"/><g id="SVGRepo_tracerCarrier" stroke-linecap="round" stroke-linejoin="round"/><g id="SVGRepo_iconCarrier"><path d="M24.375 0.938H5.625C3.037 0.938 0.938 3.036 0.938 5.625V24.375c0 2.588 2.099 4.688 4.688 4.688h18.75c2.588 0 4.688 -2.099 4.688 -4.688V5.625C29.063 3.036 26.963 0.938 24.375 0.938m2.344 20.468A3.906 3.906 0 0 1 22.813 25.313H7.187A3.906 3.906 0 0 1 3.281 21.406V5.781A3.905 3.905 0 0 1 7.187 1.875h15.625A3.905 3.905 0 0 1 26.719 5.781z" fill="#000000"/></g></svg>
