<svg viewBox="0 0 64 64" xmlns="http://www.w3.org/2000/svg" xmlns:xlink="http://www.w3.org/1999/xlink" aria-hidden="true" role="img" class="iconify iconify--emojione-monotone" preserveAspectRatio="xMidYMid meet" fill="#000000"><g id="SVGRepo_bgCarrier" stroke-width="0"></g><g id="SVGRepo_tracerCarrier" stroke-linecap="round" stroke-linejoin="round"></g><g id="SVGRepo_iconCarrier"><path d="M52 2H12C6.478 2 2 6.477 2 11.999V52c0 5.522 4.478 10 10 10h40c5.522 0 10-4.478 10-10V11.999C62 6.477 57.522 2 52 2zm5 43.666A8.333 8.333 0 0 1 48.667 54H15.333A8.333 8.333 0 0 1 7 45.666V12.333A8.332 8.332 0 0 1 15.333 4h33.334A8.332 8.332 0 0 1 57 12.333v33.333z" fill="#000000"></path><g transform="translate(12, 12) scale(1.666)"> <g> <path fill="none" d="M0 0h24v24H0z"></path> <path d="M7.172 2.757L10.414 6h3.171l3.243-3.242a1 1 0 0 1 1.415 1.415l-1.829 1.827L18.5 6A3.5 3.5 0 0 1 22 9.5v8a3.5 3.5 0 0 1-3.5 3.5h-13A3.5 3.5 0 0 1 2 17.5v-8A3.5 3.5 0 0 1 5.5 6h2.085L5.757 4.171a1 1 0 0 1 1.415-1.415zM18.5 8h-13a1.5 1.5 0 0 0-1.493 1.356L4 9.5v8a1.5 1.5 0 0 0 1.356 1.493L5.5 19h13a1.5 1.5 0 0 0 1.493-1.356L20 17.5v-8A1.5 1.5 0 0 0 18.5 8zM8 11a1 1 0 0 1 1 1v2a1 1 0 0 1-2 0v-2a1 1 0 0 1 1-1zm8 0a1 1 0 0 1 1 1v2a1 1 0 0 1-2 0v-2a1 1 0 0 1 1-1z" fill="#000000"></path> </g> </g></g></svg>
