<svg viewBox="0 0 64 64" xmlns="http://www.w3.org/2000/svg" xmlns:xlink="http://www.w3.org/1999/xlink" aria-hidden="true" role="img" class="iconify iconify--emojione-monotone" preserveAspectRatio="xMidYMid meet" fill="#000000">
  <g id="SVGRepo_bgCarrier" stroke-width="0"></g>
  <g id="SVGRepo_tracerCarrier" stroke-linecap="round" stroke-linejoin="round"></g>
  <g id="SVGRepo_iconCarrier">
    <path d="M52 2H12C6.478 2 2 6.477 2 11.999V52c0 5.522 4.478 10 10 10h40c5.522 0 10-4.478 10-10V11.999C62 6.477 57.522 2 52 2zm5 43.666A8.333 8.333 0 0 1 48.667 54H15.333A8.333 8.333 0 0 1 7 45.666V12.333A8.332 8.332 0 0 1 15.333 4h33.334A8.332 8.332 0 0 1 57 12.333v33.333z" fill="#000000"></path>
    <g transform="translate(15.2, 13.4) scale(1.4)">
      <path d="M3.428 3.4h3.429v3.428H3.428V3.4zm13.714 0h3.43v3.428h-3.43V3.4z" fill="gold"></path>
      <path d="M3.428 6.828h6.857v3.429H3.429V6.828zm10.286 0h6.857v3.429h-6.857V6.828z" fill="#FFAF00"></path>
      <path d="M3.428 10.258h17.144v3.428H3.428v-3.428z" fill="#FF8205"></path>
      <path d="M3.428 13.686h3.429v3.428H3.428v-3.428zm6.858 0h3.429v3.428h-3.429v-3.428zm6.856 0h3.43v3.428h-3.43v-3.428z" fill="#FA500F"></path>
      <path d="M0 17.114h10.286v3.429H0v-3.429zm13.714 0H24v3.429H13.714v-3.429z" fill="#E10500"></path>
    </g>
  </g>
</svg>
