<svg viewBox="0 0 64 64" xmlns="http://www.w3.org/2000/svg" xmlns:xlink="http://www.w3.org/1999/xlink" aria-hidden="true" role="img" class="iconify iconify--emojione-monotone" preserveAspectRatio="xMidYMid meet" fill="#000000">
  <defs>
    <clipPath id="mergedClip">
      <circle cx="60" cy="60" r="47"/>
    </clipPath>
  </defs>
  <g id="SVGRepo_bgCarrier" stroke-width="0"></g>
  <g id="SVGRepo_tracerCarrier" stroke-linecap="round" stroke-linejoin="round"></g>
  <g id="SVGRepo_iconCarrier">
    <path d="M52 2H12C6.478 2 2 6.477 2 11.999V52c0 5.522 4.478 10 10 10h40c5.522 0 10-4.478 10-10V11.999C62 6.477 57.522 2 52 2zm5 43.666A8.333 8.333 0 0 1 48.667 54H15.333A8.333 8.333 0 0 1 7 45.666V12.333A8.332 8.332 0 0 1 15.333 4h33.334A8.332 8.332 0 0 1 57 12.333v33.333z" fill="#000000"></path>
    
    <!-- Linux Do图标向上移动 -->
    <g transform="translate(12 7) scale(0.3333)">
      <circle fill="#f0f0f0" cx="60" cy="60" r="50"/>
      <rect fill="#1c1c1e" clip-path="url(#mergedClip)" x="10" y="10" width="100" height="30"/>
      <rect fill="#f0f0f0" clip-path="url(#mergedClip)" x="10" y="40" width="100" height="40"/>
      <rect fill="#ffb003" clip-path="url(#mergedClip)" x="10" y="80" width="100" height="30"/>
    </g>
  </g>
</svg>
