<svg viewBox="0 0 64 64" xmlns="http://www.w3.org/2000/svg"><path d="M52 2H12C6.478 2 2 6.477 2 11.999V52c0 5.522 4.478 10 10 10h40c5.522 0 10-4.478 10-10V11.999C62 6.477 57.522 2 52 2m5 43.666A8.333 8.333 0 0 1 48.667 54H15.333A8.333 8.333 0 0 1 7 45.666V12.333A8.33 8.33 0 0 1 15.333 4h33.334A8.33 8.33 0 0 1 57 12.333z"/><path d="m42.78 14.56-10.791 9.131h10.79zm-10.791 9.131-9.961-9.13v9.13zm0-10.791v34.032m9.96-13.28-9.96-9.961v12.7l9.96 8.881zm-19.921 0 9.96-9.961v12.444l-9.96 9.137zm-4.15-9.961v13.281h4.15v-3.32l9.96-9.961zm14.11 0 9.962 9.96v3.32h4.15v-13.28z" stroke="#000" stroke-width="1.66" stroke-miterlimit="10" fill="none"/></svg>
