<svg width="18.92" height="18.92" viewBox="0 0 18.92 18.92" fill="none" xmlns="http://www.w3.org/2000/svg">
  <g clip-path="url(#clip0)">
    <g transform="translate(-69.5864 -5.79022)">
      <path d="M71.2966 19.3925C71.299 19.9998 71.5413 20.5814 71.9706 21.0108C72.4 21.4402 72.9817 21.6824 73.5889 21.6848H75.0103" stroke="#18181A" stroke-width="0.88" stroke-linecap="round" stroke-linejoin="round"/>
      <path d="M75.6796 21.684L74.4574 20.1416" stroke="#18181A" stroke-width="0.88" stroke-linecap="round" stroke-linejoin="round"/>
      <path d="M75.6796 21.6843L74.4574 23.2266" stroke="#18181A" stroke-width="0.88" stroke-linecap="round" stroke-linejoin="round"/>
      <path d="M86.2522 10.2939C86.2522 9.68399 86.0101 9.09901 85.579 8.66752C85.1479 8.23602 84.5632 7.99331 83.9532 7.99272H82.543" stroke="#18181A" stroke-width="0.88" stroke-linecap="round" stroke-linejoin="round"/>
      <path d="M81.8715 7.99272L83.0915 9.5373" stroke="#18181A" stroke-width="0.88" stroke-linecap="round" stroke-linejoin="round"/>
      <path d="M81.8715 7.99574L83.0915 6.45116" stroke="#18181A" stroke-width="0.88" stroke-linecap="round" stroke-linejoin="round"/>
      <path fill-rule="evenodd" clip-rule="evenodd" d="M87.9702 15.6488V20.8779C87.9705 21.2578 87.8959 21.634 87.7507 21.9851C87.6055 22.3361 87.3924 22.655 87.1238 22.9237C86.8552 23.1923 86.5363 23.4053 86.1852 23.5505C85.8342 23.6958 85.458 23.7704 85.0781 23.7701H81.218C80.4512 23.7694 79.7159 23.4645 79.1737 22.9223C78.6314 22.38 78.3265 21.6448 78.3259 20.8779V15.6488C78.3259 14.8815 78.6306 14.1457 79.1729 13.6029C79.7152 13.0602 80.4508 12.755 81.218 12.7543H85.0781C85.8454 12.755 86.581 13.0602 87.1233 13.6029C87.6656 14.1457 87.9702 14.8815 87.9702 15.6488Z" fill="#74BD44" stroke="#18181A" stroke-width="1.1"/>
      <path d="M81.2157 20.9341V16.9341C81.2157 16.4207 81.4196 15.9283 81.7827 15.5652C82.1457 15.2022 82.6381 14.9982 83.1516 14.9982C83.665 14.9982 84.1574 15.2022 84.5204 15.5652C84.8834 15.9283 85.0874 16.4207 85.0874 16.9341V20.9341" stroke="#18181A" stroke-width="0.88" stroke-linecap="round" stroke-linejoin="round"/>
      <path d="M81.2181 18.688H85.0899" stroke="#18181A" stroke-width="0.88" stroke-linecap="round" stroke-linejoin="round"/>
      <path fill-rule="evenodd" clip-rule="evenodd" d="M79.7556 9.84415V15.0733C79.7556 15.8405 79.451 16.5764 78.9087 17.1192C78.3663 17.6619 77.6307 17.9671 76.8635 17.9677H73.0034C72.237 17.9659 71.5026 17.6601 70.9613 17.1175C70.42 16.5749 70.116 15.8397 70.116 15.0733V9.84415C70.1157 9.46426 70.1903 9.08805 70.3355 8.73702C70.4807 8.38599 70.6938 8.06705 70.9624 7.79843C71.231 7.52981 71.5499 7.31679 71.901 7.17155C72.252 7.02632 72.6282 6.95172 73.0081 6.95203H76.8565C77.6233 6.95264 78.3586 7.25755 78.9008 7.79979C79.4431 8.34204 79.748 9.0773 79.7486 9.84415H79.7556Z" fill="white" stroke="#18181A" stroke-width="1.1" stroke-linejoin="round"/>
      <path d="M74.8671 9.18591L76.8169 13.6524L75.6064 13.5964" stroke="#18181A" stroke-width="0.88" stroke-linecap="round" stroke-linejoin="round"/>
      <path d="M77.1995 9.75357L72.4298 10.3786" stroke="#18181A" stroke-width="0.88" stroke-linecap="round" stroke-linejoin="round"/>
      <path d="M77.0804 15.439H74.1417C73.7204 15.439 73.3164 15.2717 73.0185 14.9738C72.7207 14.6759 72.5533 14.2719 72.5533 13.8507" stroke="#18181A" stroke-width="0.88" stroke-linecap="round" stroke-linejoin="round"/>
      <path d="M77.442 11.5177L72.6816 12.1428" stroke="#18181A" stroke-width="0.88" stroke-linecap="round" stroke-linejoin="round"/>
    </g>
  </g>
  <defs>
    <clipPath id="clip0">
      <rect width="18.92" height="18.92" fill="white"/>
    </clipPath>
  </defs>
</svg>
